<?xml version="1.0" encoding="UTF-8"?>
<svg width="1454px" height="988px" viewBox="0 0 1454 988" version="1.1" xmlns="http://www.w3.org/2000/svg" xmlns:xlink="http://www.w3.org/1999/xlink">
    <!-- Generator: Sketch 51 (57462) - http://www.bohemiancoding.com/sketch -->
    <title>confetti</title>
    <desc>Created with Sketch.</desc>
    <defs></defs>
    <g id="Creative-Directon" stroke="none" stroke-width="1" fill="none" fill-rule="evenodd">
        <g id="confetti" transform="translate(-2.000000, -1.000000)" fill-rule="nonzero">
            <path d="M1420.41885,956.844497 C1418.43063,956.844497 1416.81885,955.232722 1416.81885,953.244497 C1416.81885,951.256271 1418.43063,949.644497 1420.41885,949.644497 C1422.40708,949.644497 1424.01885,951.256271 1424.01885,953.244497 C1424.01885,955.232722 1422.40708,956.844497 1420.41885,956.844497 Z M1420.41885,971.244497 C1418.43063,971.244497 1416.81885,969.632722 1416.81885,967.644497 C1416.81885,965.656271 1418.43063,964.044497 1420.41885,964.044497 C1422.40708,964.044497 1424.01885,965.656271 1424.01885,967.644497 C1424.01885,969.632722 1422.40708,971.244497 1420.41885,971.244497 Z M1434.81885,956.844497 C1432.83063,956.844497 1431.21885,955.232722 1431.21885,953.244497 C1431.21885,951.256271 1432.83063,949.644497 1434.81885,949.644497 C1436.80708,949.644497 1438.41885,951.256271 1438.41885,953.244497 C1438.41885,955.232722 1436.80708,956.844497 1434.81885,956.844497 Z M1434.81885,971.244497 C1432.83063,971.244497 1431.21885,969.632722 1431.21885,967.644497 C1431.21885,965.656271 1432.83063,964.044497 1434.81885,964.044497 C1436.80708,964.044497 1438.41885,965.656271 1438.41885,967.644497 C1438.41885,969.632722 1436.80708,971.244497 1434.81885,971.244497 Z M1449.21885,956.844497 C1447.23063,956.844497 1445.61885,955.232722 1445.61885,953.244497 C1445.61885,951.256271 1447.23063,949.644497 1449.21885,949.644497 C1451.20708,949.644497 1452.81885,951.256271 1452.81885,953.244497 C1452.81885,955.232722 1451.20708,956.844497 1449.21885,956.844497 Z M1449.21885,971.244497 C1447.23063,971.244497 1445.61885,969.632722 1445.61885,967.644497 C1445.61885,965.656271 1447.23063,964.044497 1449.21885,964.044497 C1451.20708,964.044497 1452.81885,965.656271 1452.81885,967.644497 C1452.81885,969.632722 1451.20708,971.244497 1449.21885,971.244497 Z M1420.41885,985.644497 C1418.43063,985.644497 1416.81885,984.032722 1416.81885,982.044497 C1416.81885,980.056271 1418.43063,978.444497 1420.41885,978.444497 C1422.40708,978.444497 1424.01885,980.056271 1424.01885,982.044497 C1424.01885,984.032722 1422.40708,985.644497 1420.41885,985.644497 Z M1434.81885,985.644497 C1432.83063,985.644497 1431.21885,984.032722 1431.21885,982.044497 C1431.21885,980.056271 1432.83063,978.444497 1434.81885,978.444497 C1436.80708,978.444497 1438.41885,980.056271 1438.41885,982.044497 C1438.41885,984.032722 1436.80708,985.644497 1434.81885,985.644497 Z M1449.21885,985.644497 C1447.23063,985.644497 1445.61885,984.032722 1445.61885,982.044497 C1445.61885,980.056271 1447.23063,978.444497 1449.21885,978.444497 C1451.20708,978.444497 1452.81885,980.056271 1452.81885,982.044497 C1452.81885,984.032722 1451.20708,985.644497 1449.21885,985.644497 Z" id="Combined-Shape" fill="#F4157C" opacity="0.87" transform="translate(1434.818850, 967.644497) rotate(-167.000000) translate(-1434.818850, -967.644497) "></path>
            <path d="M1327.85998,806.601 C1325.42992,806.601 1323.45998,804.631053 1323.45998,802.201 C1323.45998,799.770947 1325.42992,797.801 1327.85998,797.801 C1330.29003,797.801 1332.25998,799.770947 1332.25998,802.201 C1332.25998,804.631053 1330.29003,806.601 1327.85998,806.601 Z M1327.85998,824.201 C1325.42992,824.201 1323.45998,822.231053 1323.45998,819.801 C1323.45998,817.370947 1325.42992,815.401 1327.85998,815.401 C1330.29003,815.401 1332.25998,817.370947 1332.25998,819.801 C1332.25998,822.231053 1330.29003,824.201 1327.85998,824.201 Z M1345.45998,806.601 C1343.02992,806.601 1341.05998,804.631053 1341.05998,802.201 C1341.05998,799.770947 1343.02992,797.801 1345.45998,797.801 C1347.89003,797.801 1349.85998,799.770947 1349.85998,802.201 C1349.85998,804.631053 1347.89003,806.601 1345.45998,806.601 Z M1345.45998,824.201 C1343.02992,824.201 1341.05998,822.231053 1341.05998,819.801 C1341.05998,817.370947 1343.02992,815.401 1345.45998,815.401 C1347.89003,815.401 1349.85998,817.370947 1349.85998,819.801 C1349.85998,822.231053 1347.89003,824.201 1345.45998,824.201 Z M1363.05998,806.601 C1360.62992,806.601 1358.65998,804.631053 1358.65998,802.201 C1358.65998,799.770947 1360.62992,797.801 1363.05998,797.801 C1365.49003,797.801 1367.45998,799.770947 1367.45998,802.201 C1367.45998,804.631053 1365.49003,806.601 1363.05998,806.601 Z M1363.05998,824.201 C1360.62992,824.201 1358.65998,822.231053 1358.65998,819.801 C1358.65998,817.370947 1360.62992,815.401 1363.05998,815.401 C1365.49003,815.401 1367.45998,817.370947 1367.45998,819.801 C1367.45998,822.231053 1365.49003,824.201 1363.05998,824.201 Z M1327.85998,841.801 C1325.42992,841.801 1323.45998,839.831053 1323.45998,837.401 C1323.45998,834.970947 1325.42992,833.001 1327.85998,833.001 C1330.29003,833.001 1332.25998,834.970947 1332.25998,837.401 C1332.25998,839.831053 1330.29003,841.801 1327.85998,841.801 Z M1345.45998,841.801 C1343.02992,841.801 1341.05998,839.831053 1341.05998,837.401 C1341.05998,834.970947 1343.02992,833.001 1345.45998,833.001 C1347.89003,833.001 1349.85998,834.970947 1349.85998,837.401 C1349.85998,839.831053 1347.89003,841.801 1345.45998,841.801 Z M1363.05998,841.801 C1360.62992,841.801 1358.65998,839.831053 1358.65998,837.401 C1358.65998,834.970947 1360.62992,833.001 1363.05998,833.001 C1365.49003,833.001 1367.45998,834.970947 1367.45998,837.401 C1367.45998,839.831053 1365.49003,841.801 1363.05998,841.801 Z" id="Combined-Shape" fill="#F4157C" opacity="0.91" transform="translate(1345.459978, 819.801000) rotate(-130.000000) translate(-1345.459978, -819.801000) "></path>
            <path d="M773.85881,930.555984 C771.207843,930.555984 769.05881,928.406951 769.05881,925.755984 C769.05881,923.105017 771.207843,920.955984 773.85881,920.955984 C776.509777,920.955984 778.65881,923.105017 778.65881,925.755984 C778.65881,928.406951 776.509777,930.555984 773.85881,930.555984 Z M773.85881,949.755984 C771.207843,949.755984 769.05881,947.606951 769.05881,944.955984 C769.05881,942.305017 771.207843,940.155984 773.85881,940.155984 C776.509777,940.155984 778.65881,942.305017 778.65881,944.955984 C778.65881,947.606951 776.509777,949.755984 773.85881,949.755984 Z M793.05881,930.555984 C790.407843,930.555984 788.25881,928.406951 788.25881,925.755984 C788.25881,923.105017 790.407843,920.955984 793.05881,920.955984 C795.709777,920.955984 797.85881,923.105017 797.85881,925.755984 C797.85881,928.406951 795.709777,930.555984 793.05881,930.555984 Z M793.05881,949.755984 C790.407843,949.755984 788.25881,947.606951 788.25881,944.955984 C788.25881,942.305017 790.407843,940.155984 793.05881,940.155984 C795.709777,940.155984 797.85881,942.305017 797.85881,944.955984 C797.85881,947.606951 795.709777,949.755984 793.05881,949.755984 Z M812.25881,930.555984 C809.607843,930.555984 807.45881,928.406951 807.45881,925.755984 C807.45881,923.105017 809.607843,920.955984 812.25881,920.955984 C814.909777,920.955984 817.05881,923.105017 817.05881,925.755984 C817.05881,928.406951 814.909777,930.555984 812.25881,930.555984 Z M812.25881,949.755984 C809.607843,949.755984 807.45881,947.606951 807.45881,944.955984 C807.45881,942.305017 809.607843,940.155984 812.25881,940.155984 C814.909777,940.155984 817.05881,942.305017 817.05881,944.955984 C817.05881,947.606951 814.909777,949.755984 812.25881,949.755984 Z M773.85881,968.955984 C771.207843,968.955984 769.05881,966.806951 769.05881,964.155984 C769.05881,961.505017 771.207843,959.355984 773.85881,959.355984 C776.509777,959.355984 778.65881,961.505017 778.65881,964.155984 C778.65881,966.806951 776.509777,968.955984 773.85881,968.955984 Z M793.05881,968.955984 C790.407843,968.955984 788.25881,966.806951 788.25881,964.155984 C788.25881,961.505017 790.407843,959.355984 793.05881,959.355984 C795.709777,959.355984 797.85881,961.505017 797.85881,964.155984 C797.85881,966.806951 795.709777,968.955984 793.05881,968.955984 Z M812.25881,968.955984 C809.607843,968.955984 807.45881,966.806951 807.45881,964.155984 C807.45881,961.505017 809.607843,959.355984 812.25881,959.355984 C814.909777,959.355984 817.05881,961.505017 817.05881,964.155984 C817.05881,966.806951 814.909777,968.955984 812.25881,968.955984 Z" id="Combined-Shape" fill="#F4157C" opacity="0.88" transform="translate(793.058810, 944.955984) rotate(-306.000000) translate(-793.058810, -944.955984) "></path>
            <path d="M13.85881,665.555984 C11.2078432,665.555984 9.05880998,663.406951 9.05880998,660.755984 C9.05880998,658.105017 11.2078432,655.955984 13.85881,655.955984 C16.5097768,655.955984 18.65881,658.105017 18.65881,660.755984 C18.65881,663.406951 16.5097768,665.555984 13.85881,665.555984 Z M13.85881,684.755984 C11.2078432,684.755984 9.05880998,682.606951 9.05880998,679.955984 C9.05880998,677.305017 11.2078432,675.155984 13.85881,675.155984 C16.5097768,675.155984 18.65881,677.305017 18.65881,679.955984 C18.65881,682.606951 16.5097768,684.755984 13.85881,684.755984 Z M33.05881,665.555984 C30.4078432,665.555984 28.25881,663.406951 28.25881,660.755984 C28.25881,658.105017 30.4078432,655.955984 33.05881,655.955984 C35.7097768,655.955984 37.85881,658.105017 37.85881,660.755984 C37.85881,663.406951 35.7097768,665.555984 33.05881,665.555984 Z M33.05881,684.755984 C30.4078432,684.755984 28.25881,682.606951 28.25881,679.955984 C28.25881,677.305017 30.4078432,675.155984 33.05881,675.155984 C35.7097768,675.155984 37.85881,677.305017 37.85881,679.955984 C37.85881,682.606951 35.7097768,684.755984 33.05881,684.755984 Z M52.25881,665.555984 C49.6078432,665.555984 47.45881,663.406951 47.45881,660.755984 C47.45881,658.105017 49.6078432,655.955984 52.25881,655.955984 C54.9097768,655.955984 57.05881,658.105017 57.05881,660.755984 C57.05881,663.406951 54.9097768,665.555984 52.25881,665.555984 Z M52.25881,684.755984 C49.6078432,684.755984 47.45881,682.606951 47.45881,679.955984 C47.45881,677.305017 49.6078432,675.155984 52.25881,675.155984 C54.9097768,675.155984 57.05881,677.305017 57.05881,679.955984 C57.05881,682.606951 54.9097768,684.755984 52.25881,684.755984 Z M13.85881,703.955984 C11.2078432,703.955984 9.05880998,701.806951 9.05880998,699.155984 C9.05880998,696.505017 11.2078432,694.355984 13.85881,694.355984 C16.5097768,694.355984 18.65881,696.505017 18.65881,699.155984 C18.65881,701.806951 16.5097768,703.955984 13.85881,703.955984 Z M33.05881,703.955984 C30.4078432,703.955984 28.25881,701.806951 28.25881,699.155984 C28.25881,696.505017 30.4078432,694.355984 33.05881,694.355984 C35.7097768,694.355984 37.85881,696.505017 37.85881,699.155984 C37.85881,701.806951 35.7097768,703.955984 33.05881,703.955984 Z M52.25881,703.955984 C49.6078432,703.955984 47.45881,701.806951 47.45881,699.155984 C47.45881,696.505017 49.6078432,694.355984 52.25881,694.355984 C54.9097768,694.355984 57.05881,696.505017 57.05881,699.155984 C57.05881,701.806951 54.9097768,703.955984 52.25881,703.955984 Z" id="Combined-Shape" fill="#F4157C" opacity="0.88" transform="translate(33.058810, 679.955984) rotate(-330.000000) translate(-33.058810, -679.955984) "></path>
            <path d="M748.782081,520.885964 C746.517714,520.885964 744.682081,519.050332 744.682081,516.785964 C744.682081,514.521597 746.517714,512.685964 748.782081,512.685964 C751.046449,512.685964 752.882081,514.521597 752.882081,516.785964 C752.882081,519.050332 751.046449,520.885964 748.782081,520.885964 Z M748.782081,537.285964 C746.517714,537.285964 744.682081,535.450332 744.682081,533.185964 C744.682081,530.921597 746.517714,529.085964 748.782081,529.085964 C751.046449,529.085964 752.882081,530.921597 752.882081,533.185964 C752.882081,535.450332 751.046449,537.285964 748.782081,537.285964 Z M765.182081,520.885964 C762.917714,520.885964 761.082081,519.050332 761.082081,516.785964 C761.082081,514.521597 762.917714,512.685964 765.182081,512.685964 C767.446449,512.685964 769.282081,514.521597 769.282081,516.785964 C769.282081,519.050332 767.446449,520.885964 765.182081,520.885964 Z M765.182081,537.285964 C762.917714,537.285964 761.082081,535.450332 761.082081,533.185964 C761.082081,530.921597 762.917714,529.085964 765.182081,529.085964 C767.446449,529.085964 769.282081,530.921597 769.282081,533.185964 C769.282081,535.450332 767.446449,537.285964 765.182081,537.285964 Z M781.582081,520.885964 C779.317714,520.885964 777.482081,519.050332 777.482081,516.785964 C777.482081,514.521597 779.317714,512.685964 781.582081,512.685964 C783.846449,512.685964 785.682081,514.521597 785.682081,516.785964 C785.682081,519.050332 783.846449,520.885964 781.582081,520.885964 Z M781.582081,537.285964 C779.317714,537.285964 777.482081,535.450332 777.482081,533.185964 C777.482081,530.921597 779.317714,529.085964 781.582081,529.085964 C783.846449,529.085964 785.682081,530.921597 785.682081,533.185964 C785.682081,535.450332 783.846449,537.285964 781.582081,537.285964 Z M748.782081,553.685964 C746.517714,553.685964 744.682081,551.850332 744.682081,549.585964 C744.682081,547.321597 746.517714,545.485964 748.782081,545.485964 C751.046449,545.485964 752.882081,547.321597 752.882081,549.585964 C752.882081,551.850332 751.046449,553.685964 748.782081,553.685964 Z M765.182081,553.685964 C762.917714,553.685964 761.082081,551.850332 761.082081,549.585964 C761.082081,547.321597 762.917714,545.485964 765.182081,545.485964 C767.446449,545.485964 769.282081,547.321597 769.282081,549.585964 C769.282081,551.850332 767.446449,553.685964 765.182081,553.685964 Z M781.582081,553.685964 C779.317714,553.685964 777.482081,551.850332 777.482081,549.585964 C777.482081,547.321597 779.317714,545.485964 781.582081,545.485964 C783.846449,545.485964 785.682081,547.321597 785.682081,549.585964 C785.682081,551.850332 783.846449,553.685964 781.582081,553.685964 Z" id="Combined-Shape" fill="#F4157C" opacity="0.93" transform="translate(765.182081, 533.185964) rotate(-237.000000) translate(-765.182081, -533.185964) "></path>
            <path d="M817.782529,47.0677435 C815.462934,47.0677435 813.582529,45.1873394 813.582529,42.8677435 C813.582529,40.5481475 815.462934,38.6677435 817.782529,38.6677435 C820.102125,38.6677435 821.982529,40.5481475 821.982529,42.8677435 C821.982529,45.1873394 820.102125,47.0677435 817.782529,47.0677435 Z M817.782529,63.8677435 C815.462934,63.8677435 813.582529,61.9873394 813.582529,59.6677435 C813.582529,57.3481475 815.462934,55.4677435 817.782529,55.4677435 C820.102125,55.4677435 821.982529,57.3481475 821.982529,59.6677435 C821.982529,61.9873394 820.102125,63.8677435 817.782529,63.8677435 Z M834.582529,47.0677435 C832.262934,47.0677435 830.382529,45.1873394 830.382529,42.8677435 C830.382529,40.5481475 832.262934,38.6677435 834.582529,38.6677435 C836.902125,38.6677435 838.782529,40.5481475 838.782529,42.8677435 C838.782529,45.1873394 836.902125,47.0677435 834.582529,47.0677435 Z M834.582529,63.8677435 C832.262934,63.8677435 830.382529,61.9873394 830.382529,59.6677435 C830.382529,57.3481475 832.262934,55.4677435 834.582529,55.4677435 C836.902125,55.4677435 838.782529,57.3481475 838.782529,59.6677435 C838.782529,61.9873394 836.902125,63.8677435 834.582529,63.8677435 Z M851.382529,47.0677435 C849.062934,47.0677435 847.182529,45.1873394 847.182529,42.8677435 C847.182529,40.5481475 849.062934,38.6677435 851.382529,38.6677435 C853.702125,38.6677435 855.582529,40.5481475 855.582529,42.8677435 C855.582529,45.1873394 853.702125,47.0677435 851.382529,47.0677435 Z M851.382529,63.8677435 C849.062934,63.8677435 847.182529,61.9873394 847.182529,59.6677435 C847.182529,57.3481475 849.062934,55.4677435 851.382529,55.4677435 C853.702125,55.4677435 855.582529,57.3481475 855.582529,59.6677435 C855.582529,61.9873394 853.702125,63.8677435 851.382529,63.8677435 Z M817.782529,80.6677435 C815.462934,80.6677435 813.582529,78.7873394 813.582529,76.4677435 C813.582529,74.1481475 815.462934,72.2677435 817.782529,72.2677435 C820.102125,72.2677435 821.982529,74.1481475 821.982529,76.4677435 C821.982529,78.7873394 820.102125,80.6677435 817.782529,80.6677435 Z M834.582529,80.6677435 C832.262934,80.6677435 830.382529,78.7873394 830.382529,76.4677435 C830.382529,74.1481475 832.262934,72.2677435 834.582529,72.2677435 C836.902125,72.2677435 838.782529,74.1481475 838.782529,76.4677435 C838.782529,78.7873394 836.902125,80.6677435 834.582529,80.6677435 Z M851.382529,80.6677435 C849.062934,80.6677435 847.182529,78.7873394 847.182529,76.4677435 C847.182529,74.1481475 849.062934,72.2677435 851.382529,72.2677435 C853.702125,72.2677435 855.582529,74.1481475 855.582529,76.4677435 C855.582529,78.7873394 853.702125,80.6677435 851.382529,80.6677435 Z" id="Combined-Shape" fill="#F4157C" opacity="0.91" transform="translate(834.582529, 59.667743) rotate(-142.000000) translate(-834.582529, -59.667743) "></path>
            <path d="M580.666073,815.495305 C578.401706,815.495305 576.566073,813.659672 576.566073,811.395305 C576.566073,809.130938 578.401706,807.295305 580.666073,807.295305 C582.930441,807.295305 584.766073,809.130938 584.766073,811.395305 C584.766073,813.659672 582.930441,815.495305 580.666073,815.495305 Z M580.666073,831.895305 C578.401706,831.895305 576.566073,830.059672 576.566073,827.795305 C576.566073,825.530938 578.401706,823.695305 580.666073,823.695305 C582.930441,823.695305 584.766073,825.530938 584.766073,827.795305 C584.766073,830.059672 582.930441,831.895305 580.666073,831.895305 Z M597.066073,815.495305 C594.801706,815.495305 592.966073,813.659672 592.966073,811.395305 C592.966073,809.130938 594.801706,807.295305 597.066073,807.295305 C599.330441,807.295305 601.166073,809.130938 601.166073,811.395305 C601.166073,813.659672 599.330441,815.495305 597.066073,815.495305 Z M597.066073,831.895305 C594.801706,831.895305 592.966073,830.059672 592.966073,827.795305 C592.966073,825.530938 594.801706,823.695305 597.066073,823.695305 C599.330441,823.695305 601.166073,825.530938 601.166073,827.795305 C601.166073,830.059672 599.330441,831.895305 597.066073,831.895305 Z M613.466073,815.495305 C611.201706,815.495305 609.366073,813.659672 609.366073,811.395305 C609.366073,809.130938 611.201706,807.295305 613.466073,807.295305 C615.730441,807.295305 617.566073,809.130938 617.566073,811.395305 C617.566073,813.659672 615.730441,815.495305 613.466073,815.495305 Z M613.466073,831.895305 C611.201706,831.895305 609.366073,830.059672 609.366073,827.795305 C609.366073,825.530938 611.201706,823.695305 613.466073,823.695305 C615.730441,823.695305 617.566073,825.530938 617.566073,827.795305 C617.566073,830.059672 615.730441,831.895305 613.466073,831.895305 Z M580.666073,848.295305 C578.401706,848.295305 576.566073,846.459672 576.566073,844.195305 C576.566073,841.930938 578.401706,840.095305 580.666073,840.095305 C582.930441,840.095305 584.766073,841.930938 584.766073,844.195305 C584.766073,846.459672 582.930441,848.295305 580.666073,848.295305 Z M597.066073,848.295305 C594.801706,848.295305 592.966073,846.459672 592.966073,844.195305 C592.966073,841.930938 594.801706,840.095305 597.066073,840.095305 C599.330441,840.095305 601.166073,841.930938 601.166073,844.195305 C601.166073,846.459672 599.330441,848.295305 597.066073,848.295305 Z M613.466073,848.295305 C611.201706,848.295305 609.366073,846.459672 609.366073,844.195305 C609.366073,841.930938 611.201706,840.095305 613.466073,840.095305 C615.730441,840.095305 617.566073,841.930938 617.566073,844.195305 C617.566073,846.459672 615.730441,848.295305 613.466073,848.295305 Z" id="Combined-Shape" fill="#F4157C" opacity="0.71" transform="translate(597.066073, 827.795305) rotate(-12.000000) translate(-597.066073, -827.795305) "></path>
            <path d="M572.860473,402.999594 C570.927476,402.999594 569.360473,401.43259 569.360473,399.499594 C569.360473,397.566597 570.927476,395.999594 572.860473,395.999594 C574.79347,395.999594 576.360473,397.566597 576.360473,399.499594 C576.360473,401.43259 574.79347,402.999594 572.860473,402.999594 Z M572.860473,416.999594 C570.927476,416.999594 569.360473,415.43259 569.360473,413.499594 C569.360473,411.566597 570.927476,409.999594 572.860473,409.999594 C574.79347,409.999594 576.360473,411.566597 576.360473,413.499594 C576.360473,415.43259 574.79347,416.999594 572.860473,416.999594 Z M586.860473,402.999594 C584.927476,402.999594 583.360473,401.43259 583.360473,399.499594 C583.360473,397.566597 584.927476,395.999594 586.860473,395.999594 C588.79347,395.999594 590.360473,397.566597 590.360473,399.499594 C590.360473,401.43259 588.79347,402.999594 586.860473,402.999594 Z M586.860473,416.999594 C584.927476,416.999594 583.360473,415.43259 583.360473,413.499594 C583.360473,411.566597 584.927476,409.999594 586.860473,409.999594 C588.79347,409.999594 590.360473,411.566597 590.360473,413.499594 C590.360473,415.43259 588.79347,416.999594 586.860473,416.999594 Z M600.860473,402.999594 C598.927476,402.999594 597.360473,401.43259 597.360473,399.499594 C597.360473,397.566597 598.927476,395.999594 600.860473,395.999594 C602.79347,395.999594 604.360473,397.566597 604.360473,399.499594 C604.360473,401.43259 602.79347,402.999594 600.860473,402.999594 Z M600.860473,416.999594 C598.927476,416.999594 597.360473,415.43259 597.360473,413.499594 C597.360473,411.566597 598.927476,409.999594 600.860473,409.999594 C602.79347,409.999594 604.360473,411.566597 604.360473,413.499594 C604.360473,415.43259 602.79347,416.999594 600.860473,416.999594 Z M572.860473,430.999594 C570.927476,430.999594 569.360473,429.43259 569.360473,427.499594 C569.360473,425.566597 570.927476,423.999594 572.860473,423.999594 C574.79347,423.999594 576.360473,425.566597 576.360473,427.499594 C576.360473,429.43259 574.79347,430.999594 572.860473,430.999594 Z M586.860473,430.999594 C584.927476,430.999594 583.360473,429.43259 583.360473,427.499594 C583.360473,425.566597 584.927476,423.999594 586.860473,423.999594 C588.79347,423.999594 590.360473,425.566597 590.360473,427.499594 C590.360473,429.43259 588.79347,430.999594 586.860473,430.999594 Z M600.860473,430.999594 C598.927476,430.999594 597.360473,429.43259 597.360473,427.499594 C597.360473,425.566597 598.927476,423.999594 600.860473,423.999594 C602.79347,423.999594 604.360473,425.566597 604.360473,427.499594 C604.360473,429.43259 602.79347,430.999594 600.860473,430.999594 Z" id="Combined-Shape" fill="#F4157C" opacity="0.92" transform="translate(586.860473, 413.499594) rotate(-100.000000) translate(-586.860473, -413.499594) "></path>
            <path d="M472.033762,725.350163 C469.93508,725.350163 468.233762,723.648845 468.233762,721.550163 C468.233762,719.451481 469.93508,717.750163 472.033762,717.750163 C474.132445,717.750163 475.833762,719.451481 475.833762,721.550163 C475.833762,723.648845 474.132445,725.350163 472.033762,725.350163 Z M472.033762,740.550163 C469.93508,740.550163 468.233762,738.848845 468.233762,736.750163 C468.233762,734.651481 469.93508,732.950163 472.033762,732.950163 C474.132445,732.950163 475.833762,734.651481 475.833762,736.750163 C475.833762,738.848845 474.132445,740.550163 472.033762,740.550163 Z M487.233762,725.350163 C485.13508,725.350163 483.433762,723.648845 483.433762,721.550163 C483.433762,719.451481 485.13508,717.750163 487.233762,717.750163 C489.332445,717.750163 491.033762,719.451481 491.033762,721.550163 C491.033762,723.648845 489.332445,725.350163 487.233762,725.350163 Z M487.233762,740.550163 C485.13508,740.550163 483.433762,738.848845 483.433762,736.750163 C483.433762,734.651481 485.13508,732.950163 487.233762,732.950163 C489.332445,732.950163 491.033762,734.651481 491.033762,736.750163 C491.033762,738.848845 489.332445,740.550163 487.233762,740.550163 Z M502.433762,725.350163 C500.33508,725.350163 498.633762,723.648845 498.633762,721.550163 C498.633762,719.451481 500.33508,717.750163 502.433762,717.750163 C504.532445,717.750163 506.233762,719.451481 506.233762,721.550163 C506.233762,723.648845 504.532445,725.350163 502.433762,725.350163 Z M502.433762,740.550163 C500.33508,740.550163 498.633762,738.848845 498.633762,736.750163 C498.633762,734.651481 500.33508,732.950163 502.433762,732.950163 C504.532445,732.950163 506.233762,734.651481 506.233762,736.750163 C506.233762,738.848845 504.532445,740.550163 502.433762,740.550163 Z M472.033762,755.750163 C469.93508,755.750163 468.233762,754.048845 468.233762,751.950163 C468.233762,749.851481 469.93508,748.150163 472.033762,748.150163 C474.132445,748.150163 475.833762,749.851481 475.833762,751.950163 C475.833762,754.048845 474.132445,755.750163 472.033762,755.750163 Z M487.233762,755.750163 C485.13508,755.750163 483.433762,754.048845 483.433762,751.950163 C483.433762,749.851481 485.13508,748.150163 487.233762,748.150163 C489.332445,748.150163 491.033762,749.851481 491.033762,751.950163 C491.033762,754.048845 489.332445,755.750163 487.233762,755.750163 Z M502.433762,755.750163 C500.33508,755.750163 498.633762,754.048845 498.633762,751.950163 C498.633762,749.851481 500.33508,748.150163 502.433762,748.150163 C504.532445,748.150163 506.233762,749.851481 506.233762,751.950163 C506.233762,754.048845 504.532445,755.750163 502.433762,755.750163 Z" id="Combined-Shape" fill="#F4157C" opacity="0.83"></path>
            <path d="M469.793628,92.0884443 C467.91586,92.0884443 466.393628,90.5662124 466.393628,88.6884443 C466.393628,86.8106762 467.91586,85.2884443 469.793628,85.2884443 C471.671396,85.2884443 473.193628,86.8106762 473.193628,88.6884443 C473.193628,90.5662124 471.671396,92.0884443 469.793628,92.0884443 Z M469.793628,105.688444 C467.91586,105.688444 466.393628,104.166212 466.393628,102.288444 C466.393628,100.410676 467.91586,98.8884443 469.793628,98.8884443 C471.671396,98.8884443 473.193628,100.410676 473.193628,102.288444 C473.193628,104.166212 471.671396,105.688444 469.793628,105.688444 Z M483.393628,92.0884443 C481.51586,92.0884443 479.993628,90.5662124 479.993628,88.6884443 C479.993628,86.8106762 481.51586,85.2884443 483.393628,85.2884443 C485.271396,85.2884443 486.793628,86.8106762 486.793628,88.6884443 C486.793628,90.5662124 485.271396,92.0884443 483.393628,92.0884443 Z M483.393628,105.688444 C481.51586,105.688444 479.993628,104.166212 479.993628,102.288444 C479.993628,100.410676 481.51586,98.8884443 483.393628,98.8884443 C485.271396,98.8884443 486.793628,100.410676 486.793628,102.288444 C486.793628,104.166212 485.271396,105.688444 483.393628,105.688444 Z M496.993628,92.0884443 C495.11586,92.0884443 493.593628,90.5662124 493.593628,88.6884443 C493.593628,86.8106762 495.11586,85.2884443 496.993628,85.2884443 C498.871396,85.2884443 500.393628,86.8106762 500.393628,88.6884443 C500.393628,90.5662124 498.871396,92.0884443 496.993628,92.0884443 Z M496.993628,105.688444 C495.11586,105.688444 493.593628,104.166212 493.593628,102.288444 C493.593628,100.410676 495.11586,98.8884443 496.993628,98.8884443 C498.871396,98.8884443 500.393628,100.410676 500.393628,102.288444 C500.393628,104.166212 498.871396,105.688444 496.993628,105.688444 Z M469.793628,119.288444 C467.91586,119.288444 466.393628,117.766212 466.393628,115.888444 C466.393628,114.010676 467.91586,112.488444 469.793628,112.488444 C471.671396,112.488444 473.193628,114.010676 473.193628,115.888444 C473.193628,117.766212 471.671396,119.288444 469.793628,119.288444 Z M483.393628,119.288444 C481.51586,119.288444 479.993628,117.766212 479.993628,115.888444 C479.993628,114.010676 481.51586,112.488444 483.393628,112.488444 C485.271396,112.488444 486.793628,114.010676 486.793628,115.888444 C486.793628,117.766212 485.271396,119.288444 483.393628,119.288444 Z M496.993628,119.288444 C495.11586,119.288444 493.593628,117.766212 493.593628,115.888444 C493.593628,114.010676 495.11586,112.488444 496.993628,112.488444 C498.871396,112.488444 500.393628,114.010676 500.393628,115.888444 C500.393628,117.766212 498.871396,119.288444 496.993628,119.288444 Z" id="Combined-Shape" fill="#F4157C" opacity="0.95"></path>
            <path d="M238.896343,584.805968 C236.742433,584.805968 234.996343,583.059879 234.996343,580.905968 C234.996343,578.752058 236.742433,577.005968 238.896343,577.005968 C241.050254,577.005968 242.796343,578.752058 242.796343,580.905968 C242.796343,583.059879 241.050254,584.805968 238.896343,584.805968 Z M238.896343,600.405968 C236.742433,600.405968 234.996343,598.659879 234.996343,596.505968 C234.996343,594.352058 236.742433,592.605968 238.896343,592.605968 C241.050254,592.605968 242.796343,594.352058 242.796343,596.505968 C242.796343,598.659879 241.050254,600.405968 238.896343,600.405968 Z M254.496343,584.805968 C252.342433,584.805968 250.596343,583.059879 250.596343,580.905968 C250.596343,578.752058 252.342433,577.005968 254.496343,577.005968 C256.650254,577.005968 258.396343,578.752058 258.396343,580.905968 C258.396343,583.059879 256.650254,584.805968 254.496343,584.805968 Z M254.496343,600.405968 C252.342433,600.405968 250.596343,598.659879 250.596343,596.505968 C250.596343,594.352058 252.342433,592.605968 254.496343,592.605968 C256.650254,592.605968 258.396343,594.352058 258.396343,596.505968 C258.396343,598.659879 256.650254,600.405968 254.496343,600.405968 Z M270.096343,584.805968 C267.942433,584.805968 266.196343,583.059879 266.196343,580.905968 C266.196343,578.752058 267.942433,577.005968 270.096343,577.005968 C272.250254,577.005968 273.996343,578.752058 273.996343,580.905968 C273.996343,583.059879 272.250254,584.805968 270.096343,584.805968 Z M270.096343,600.405968 C267.942433,600.405968 266.196343,598.659879 266.196343,596.505968 C266.196343,594.352058 267.942433,592.605968 270.096343,592.605968 C272.250254,592.605968 273.996343,594.352058 273.996343,596.505968 C273.996343,598.659879 272.250254,600.405968 270.096343,600.405968 Z M238.896343,616.005968 C236.742433,616.005968 234.996343,614.259879 234.996343,612.105968 C234.996343,609.952058 236.742433,608.205968 238.896343,608.205968 C241.050254,608.205968 242.796343,609.952058 242.796343,612.105968 C242.796343,614.259879 241.050254,616.005968 238.896343,616.005968 Z M254.496343,616.005968 C252.342433,616.005968 250.596343,614.259879 250.596343,612.105968 C250.596343,609.952058 252.342433,608.205968 254.496343,608.205968 C256.650254,608.205968 258.396343,609.952058 258.396343,612.105968 C258.396343,614.259879 256.650254,616.005968 254.496343,616.005968 Z M270.096343,616.005968 C267.942433,616.005968 266.196343,614.259879 266.196343,612.105968 C266.196343,609.952058 267.942433,608.205968 270.096343,608.205968 C272.250254,608.205968 273.996343,609.952058 273.996343,612.105968 C273.996343,614.259879 272.250254,616.005968 270.096343,616.005968 Z" id="Combined-Shape" fill="#F4157C" opacity="0.82" transform="translate(254.496343, 596.505968) rotate(-172.000000) translate(-254.496343, -596.505968) "></path>
            <rect id="Rectangle-2" fill="#A352E2" opacity="0.96" transform="translate(1408.997626, 538.080259) rotate(-222.000000) translate(-1408.997626, -538.080259) " x="1402.49763" y="531.580259" width="13" height="13" rx="2"></rect>
            <rect id="Rectangle-2" fill="#A352E2" opacity="0.7" transform="translate(1146.686208, 940.586221) rotate(-151.000000) translate(-1146.686208, -940.586221) " x="1139.68621" y="933.586221" width="14" height="14" rx="2"></rect>
            <rect id="Rectangle-2" fill="#A352E2" opacity="0.83" transform="translate(1120.712587, 298.356687) rotate(-247.000000) translate(-1120.712587, -298.356687) " x="1113.21259" y="290.856687" width="15" height="15" rx="2"></rect>
            <rect id="Rectangle-2" fill="#A352E2" opacity="0.96" transform="translate(922.270788, 803.520114) rotate(-261.000000) translate(-922.270788, -803.520114) " x="915.770788" y="797.020114" width="13" height="13" rx="2"></rect>
            <rect id="Rectangle-2" fill="#A352E2" opacity="0.98" transform="translate(1060.527349, 641.131363) rotate(-322.000000) translate(-1060.527349, -641.131363) " x="1053.02735" y="633.631363" width="15" height="15" rx="2"></rect>
            <rect id="Rectangle-2" fill="#A352E2" opacity="0.87" transform="translate(1025.540330, 12.161618) rotate(-163.000000) translate(-1025.540330, -12.161618) " x="1016.54033" y="3.16161825" width="18" height="18" rx="2"></rect>
            <rect id="Rectangle-2" fill="#A352E2" opacity="0.72" transform="translate(851.931628, 786.479349) rotate(-224.000000) translate(-851.931628, -786.479349) " x="844.431628" y="778.979349" width="15" height="15" rx="2"></rect>
            <rect id="Rectangle-2" fill="#A352E2" opacity="0.7" transform="translate(833.670197, 710.253243) rotate(-77.000000) translate(-833.670197, -710.253243) " x="824.170197" y="700.753243" width="19" height="19" rx="2"></rect>
            <rect id="Rectangle-2" fill="#A352E2" opacity="0.96" transform="translate(835.612870, 419.364913) rotate(-91.000000) translate(-835.612870, -419.364913) " x="827.11287" y="410.864913" width="17" height="17" rx="2"></rect>
            <rect id="Rectangle-2" fill="#A352E2" opacity="0.84" transform="translate(671.316454, 979.184530) rotate(-264.000000) translate(-671.316454, -979.184530) " x="664.316454" y="972.18453" width="14" height="14" rx="2"></rect>
            <rect id="Rectangle-2" fill="#A352E2" opacity="0.88" transform="translate(152.325427, 326.042778) rotate(-300.000000) translate(-152.325427, -326.042778) " x="146.325427" y="320.042778" width="12" height="12" rx="2"></rect>
            <rect id="Rectangle-2" fill="#A352E2" opacity="0.98" transform="translate(99.028628, 211.073743) rotate(-322.000000) translate(-99.028628, -211.073743) " x="93.0286276" y="205.073743" width="12" height="12" rx="2"></rect>
            <circle id="Oval-2" fill="#A352E2" opacity="0.84" transform="translate(1443.336581, 45.343342) rotate(-5.000000) translate(-1443.336581, -45.343342) " cx="1443.33658" cy="45.343342" r="9.5"></circle>
            <circle id="Oval-2" fill="#A352E2" opacity="0.93" transform="translate(1193.312921, 42.048641) rotate(-291.000000) translate(-1193.312921, -42.048641) " cx="1193.31292" cy="42.0486411" r="7.5"></circle>
            <circle id="Oval-2" fill="#A352E2" opacity="0.73" transform="translate(800.123538, 357.494868) rotate(-356.000000) translate(-800.123538, -357.494868) " cx="800.123538" cy="357.494868" r="9.5"></circle>
            <circle id="Oval-2" fill="#A352E2" opacity="0.88" transform="translate(564.026522, 550.787145) rotate(-120.000000) translate(-564.026522, -550.787145) " cx="564.026522" cy="550.787145" r="8"></circle>
            <circle id="Oval-2" fill="#A352E2" opacity="0.75" transform="translate(681.020246, 43.967339) rotate(-218.000000) translate(-681.020246, -43.967339) " cx="681.020246" cy="43.9673393" r="6"></circle>
            <circle id="Oval-2" fill="#A352E2" opacity="0.71" transform="translate(502.941258, 931.919793) rotate(-183.000000) translate(-502.941258, -931.919793) " cx="502.941258" cy="931.919793" r="7.5"></circle>
            <circle id="Oval-2" fill="#A352E2" opacity="0.95" transform="translate(499.902659, 506.620658) rotate(-210.000000) translate(-499.902659, -506.620658) " cx="499.902659" cy="506.620658" r="8"></circle>
            <circle id="Oval-2" fill="#A352E2" opacity="0.8" transform="translate(395.738879, 480.555600) rotate(-251.000000) translate(-395.738879, -480.555600) " cx="395.738879" cy="480.5556" r="6.5"></circle>
            <circle id="Oval-2" fill="#A352E2" opacity="0.83" transform="translate(329.772950, 900.239214) rotate(-249.000000) translate(-329.772950, -900.239214) " cx="329.77295" cy="900.239214" r="8"></circle>
            <circle id="Oval-2" fill="#A352E2" opacity="0.96" transform="translate(309.534407, 655.561218) rotate(-170.000000) translate(-309.534407, -655.561218) " cx="309.534407" cy="655.561218" r="8.5"></circle>
            <circle id="Oval-2" fill="#A352E2" opacity="0.99" transform="translate(265.115418, 394.695237) rotate(-256.000000) translate(-265.115418, -394.695237) " cx="265.115418" cy="394.695237" r="6"></circle>
            <path d="M1432.12495,721.527126 L1426.12495,724.955698 L1426.12495,731.795053 L1432.12495,735.223624 L1438.12495,731.795053 L1438.12495,724.955698 L1432.12495,721.527126 Z" id="Polygon" stroke="#64B0F9" stroke-width="2" opacity="0.74" transform="translate(1432.124945, 728.375375) rotate(-162.000000) translate(-1432.124945, -728.375375) "></path>
            <path d="M1361.90186,461.212625 L1357.40186,463.871716 L1357.40186,469.230456 L1361.90186,471.889547 L1366.40186,469.230456 L1366.40186,463.871716 L1361.90186,461.212625 Z" id="Polygon" stroke="#64B0F9" stroke-width="2" opacity="0.94" transform="translate(1361.901861, 466.551086) rotate(-133.000000) translate(-1361.901861, -466.551086) "></path>
            <path d="M172.570641,635.342212 L168.070641,638.001303 L168.070641,643.360042 L172.570641,646.019133 L177.070641,643.360042 L177.070641,638.001303 L172.570641,635.342212 Z" id="Polygon" stroke="#64B0F9" stroke-width="2" opacity="0.94" transform="translate(172.570641, 640.680672) rotate(-72.000000) translate(-172.570641, -640.680672) "></path>
            <path d="M101.627354,498.454873 L97.127354,501.113964 L97.127354,506.472704 L101.627354,509.131795 L106.127354,506.472704 L106.127354,501.113964 L101.627354,498.454873 Z" id="Polygon" stroke="#64B0F9" stroke-width="2" opacity="0.73" transform="translate(101.627354, 503.793334) rotate(-350.000000) translate(-101.627354, -503.793334) "></path>
            <path d="M86.0835548,21.6042064 L81.5835548,24.2632973 L81.5835548,29.6220369 L86.0835548,32.2811278 L90.5835548,29.6220369 L90.5835548,24.2632973 L86.0835548,21.6042064 Z" id="Polygon" stroke="#64B0F9" stroke-width="2" opacity="0.97" transform="translate(86.083555, 26.942667) rotate(-125.000000) translate(-86.083555, -26.942667) "></path>
            <path d="M1296.73431,181.05224 C1298.25812,178.385573 1299.78193,177.05224 1301.30574,177.05224 C1303.59146,177.05224 1303.59146,181.05224 1305.87717,181.05224 C1308.16289,181.05224 1308.16289,177.05224 1310.4486,177.05224 C1312.73431,177.05224 1312.73431,181.05224 1315.02003,181.05224 C1317.30574,181.05224 1317.30574,177.05224 1319.59146,177.05224 C1321.87717,177.05224 1321.87717,181.05224 1324.16289,181.05224 C1325.68669,181.05224 1327.2105,179.718907 1328.73431,177.05224" id="Path-3" stroke="#64B0F9" stroke-width="2" opacity="0.92" stroke-linecap="round" stroke-linejoin="round" transform="translate(1312.734314, 179.052240) rotate(-28.000000) translate(-1312.734314, -179.052240) "></path>
            <path d="M1200.85677,703.541011 C1202.71391,700.874345 1204.57105,699.541011 1206.42819,699.541011 C1209.21391,699.541011 1209.21391,703.541011 1211.99962,703.541011 C1214.78534,703.541011 1214.78534,699.541011 1217.57105,699.541011 C1220.35677,699.541011 1220.35677,703.541011 1223.14248,703.541011 C1225.92819,703.541011 1225.92819,699.541011 1228.71391,699.541011 C1231.49962,699.541011 1231.49962,703.541011 1234.28534,703.541011 C1236.14248,703.541011 1237.99962,702.207678 1239.85677,699.541011" id="Path-3" stroke="#64B0F9" stroke-width="2" opacity="0.76" stroke-linecap="round" stroke-linejoin="round" transform="translate(1220.356766, 701.541011) rotate(-18.000000) translate(-1220.356766, -701.541011) "></path>
            <path d="M933.958616,472.614919 C935.815759,469.948252 937.672901,468.614919 939.530044,468.614919 C942.315759,468.614919 942.315759,472.614919 945.101473,472.614919 C947.887187,472.614919 947.887187,468.614919 950.672901,468.614919 C953.458616,468.614919 953.458616,472.614919 956.24433,472.614919 C959.030044,472.614919 959.030044,468.614919 961.815759,468.614919 C964.601473,468.614919 964.601473,472.614919 967.387187,472.614919 C969.24433,472.614919 971.101473,471.281586 972.958616,468.614919" id="Path-3" stroke="#64B0F9" stroke-width="2" opacity="0.85" stroke-linecap="round" stroke-linejoin="round" transform="translate(953.458616, 470.614919) rotate(-297.000000) translate(-953.458616, -470.614919) "></path>
            <path d="M929.936638,251.127556 C931.412828,249.127556 932.889019,248.127556 934.365209,248.127556 C936.579495,248.127556 936.579495,251.127556 938.793781,251.127556 C941.008066,251.127556 941.008066,248.127556 943.222352,248.127556 C945.436638,248.127556 945.436638,251.127556 947.650923,251.127556 C949.865209,251.127556 949.865209,248.127556 952.079495,248.127556 C954.293781,248.127556 954.293781,251.127556 956.508066,251.127556 C957.984257,251.127556 959.460447,250.127556 960.936638,248.127556" id="Path-3" stroke="#64B0F9" stroke-width="2" opacity="0.89" stroke-linecap="round" stroke-linejoin="round" transform="translate(945.436638, 249.627556) rotate(-78.000000) translate(-945.436638, -249.627556) "></path>
            <path d="M753.120797,182.972648 C754.930321,180.305981 756.739845,178.972648 758.549369,178.972648 C761.263654,178.972648 761.263654,182.972648 763.97794,182.972648 C766.692226,182.972648 766.692226,178.972648 769.406512,178.972648 C772.120797,178.972648 772.120797,182.972648 774.835083,182.972648 C777.549369,182.972648 777.549369,178.972648 780.263654,178.972648 C782.97794,178.972648 782.97794,182.972648 785.692226,182.972648 C787.50175,182.972648 789.311274,181.639315 791.120797,178.972648" id="Path-3" stroke="#64B0F9" stroke-width="2" opacity="0.82" stroke-linecap="round" stroke-linejoin="round" transform="translate(772.120797, 180.972648) rotate(-28.000000) translate(-772.120797, -180.972648) "></path>
            <path d="M504.817719,847.199344 C506.24629,845.199344 507.674862,844.199344 509.103433,844.199344 C511.24629,844.199344 511.24629,847.199344 513.389148,847.199344 C515.532005,847.199344 515.532005,844.199344 517.674862,844.199344 C519.817719,844.199344 519.817719,847.199344 521.960576,847.199344 C524.103433,847.199344 524.103433,844.199344 526.24629,844.199344 C528.389148,844.199344 528.389148,847.199344 530.532005,847.199344 C531.960576,847.199344 533.389148,846.199344 534.817719,844.199344" id="Path-3" stroke="#64B0F9" stroke-width="2" opacity="0.93" stroke-linecap="round" stroke-linejoin="round" transform="translate(519.817719, 845.699344) rotate(-195.000000) translate(-519.817719, -845.699344) "></path>
            <path d="M530.932044,210.806342 C532.503472,208.139675 534.074901,206.806342 535.64633,206.806342 C538.003472,206.806342 538.003472,210.806342 540.360615,210.806342 C542.717758,210.806342 542.717758,206.806342 545.074901,206.806342 C547.432044,206.806342 547.432044,210.806342 549.789187,210.806342 C552.14633,210.806342 552.14633,206.806342 554.503472,206.806342 C556.860615,206.806342 556.860615,210.806342 559.217758,210.806342 C560.789187,210.806342 562.360615,209.473009 563.932044,206.806342" id="Path-3" stroke="#64B0F9" stroke-width="2" opacity="0.75" stroke-linecap="round" stroke-linejoin="round" transform="translate(547.432044, 208.806342) rotate(-240.000000) translate(-547.432044, -208.806342) "></path>
            <path d="M253.52456,838.217923 C255.238846,835.551257 256.953132,834.217923 258.667417,834.217923 C261.238846,834.217923 261.238846,838.217923 263.810275,838.217923 C266.381703,838.217923 266.381703,834.217923 268.953132,834.217923 C271.52456,834.217923 271.52456,838.217923 274.095989,838.217923 C276.667417,838.217923 276.667417,834.217923 279.238846,834.217923 C281.810275,834.217923 281.810275,838.217923 284.381703,838.217923 C286.095989,838.217923 287.810275,836.88459 289.52456,834.217923" id="Path-3" stroke="#64B0F9" stroke-width="2" opacity="0.7" stroke-linecap="round" stroke-linejoin="round" transform="translate(271.524560, 836.217923) rotate(-16.000000) translate(-271.524560, -836.217923) "></path>
            <path d="M258.333361,291.278288 C260.000027,288.611621 261.666694,287.278288 263.333361,287.278288 C265.833361,287.278288 265.833361,291.278288 268.333361,291.278288 C270.833361,291.278288 270.833361,287.278288 273.333361,287.278288 C275.833361,287.278288 275.833361,291.278288 278.333361,291.278288 C280.833361,291.278288 280.833361,287.278288 283.333361,287.278288 C285.833361,287.278288 285.833361,291.278288 288.333361,291.278288 C290.000027,291.278288 291.666694,289.944955 293.333361,287.278288" id="Path-3" stroke="#64B0F9" stroke-width="2" opacity="0.71" stroke-linecap="round" stroke-linejoin="round" transform="translate(275.833361, 289.278288) rotate(-219.000000) translate(-275.833361, -289.278288) "></path>
            <path d="M249.152347,131.016831 C250.533299,129.016831 251.914251,128.016831 253.295204,128.016831 C255.366632,128.016831 255.366632,131.016831 257.438061,131.016831 C259.509489,131.016831 259.509489,128.016831 261.580918,128.016831 C263.652347,128.016831 263.652347,131.016831 265.723775,131.016831 C267.795204,131.016831 267.795204,128.016831 269.866632,128.016831 C271.938061,128.016831 271.938061,131.016831 274.009489,131.016831 C275.390442,131.016831 276.771394,130.016831 278.152347,128.016831" id="Path-3" stroke="#64B0F9" stroke-width="2" opacity="0.95" stroke-linecap="round" stroke-linejoin="round" transform="translate(263.652347, 129.516831) rotate(-53.000000) translate(-263.652347, -129.516831) "></path>
            <path d="M24.6792015,919.831605 C25.8696777,917.831605 27.0601539,916.831605 28.2506301,916.831605 C30.0363444,916.831605 30.0363444,919.831605 31.8220587,919.831605 C33.607773,919.831605 33.607773,916.831605 35.3934872,916.831605 C37.1792015,916.831605 37.1792015,919.831605 38.9649158,919.831605 C40.7506301,919.831605 40.7506301,916.831605 42.5363444,916.831605 C44.3220587,916.831605 44.3220587,919.831605 46.107773,919.831605 C47.2982491,919.831605 48.4887253,918.831605 49.6792015,916.831605" id="Path-3" stroke="#64B0F9" stroke-width="2" opacity="0.71" stroke-linecap="round" stroke-linejoin="round" transform="translate(37.179202, 918.331605) rotate(-266.000000) translate(-37.179202, -918.331605) "></path>
            <path d="M133.413061,463.92446 C135.222585,461.257793 137.032109,459.92446 138.841633,459.92446 C141.555918,459.92446 141.555918,463.92446 144.270204,463.92446 C146.98449,463.92446 146.98449,459.92446 149.698776,459.92446 C152.413061,459.92446 152.413061,463.92446 155.127347,463.92446 C157.841633,463.92446 157.841633,459.92446 160.555918,459.92446 C163.270204,459.92446 163.270204,463.92446 165.98449,463.92446 C167.794014,463.92446 169.603538,462.591127 171.413061,459.92446" id="Path-3" stroke="#64B0F9" stroke-width="2" opacity="0.83" stroke-linecap="round" stroke-linejoin="round" transform="translate(152.413061, 461.924460) rotate(-192.000000) translate(-152.413061, -461.924460) "></path>
            <path d="M1372.13841,342.579983 C1373.90032,339.913316 1375.66222,338.579983 1377.42412,338.579983 C1380.06698,338.579983 1380.06698,342.579983 1382.70984,342.579983 C1385.3527,342.579983 1385.3527,338.579983 1387.99555,338.579983 C1390.63841,338.579983 1390.63841,342.579983 1393.28127,342.579983 C1395.92412,342.579983 1395.92412,338.579983 1398.56698,338.579983 C1401.20984,338.579983 1401.20984,342.579983 1403.8527,342.579983 C1405.6146,342.579983 1407.37651,341.246649 1409.13841,338.579983" id="Path-3" stroke="#F4157C" stroke-width="2" opacity="0.8" stroke-linecap="round" stroke-linejoin="round" transform="translate(1390.638410, 340.579983) rotate(-199.000000) translate(-1390.638410, -340.579983) "></path>
            <path d="M1221.25159,835.368204 C1222.63254,833.368204 1224.0135,832.368204 1225.39445,832.368204 C1227.46588,832.368204 1227.46588,835.368204 1229.53731,835.368204 C1231.60874,835.368204 1231.60874,832.368204 1233.68016,832.368204 C1235.75159,832.368204 1235.75159,835.368204 1237.82302,835.368204 C1239.89445,835.368204 1239.89445,832.368204 1241.96588,832.368204 C1244.03731,832.368204 1244.03731,835.368204 1246.10874,835.368204 C1247.48969,835.368204 1248.87064,834.368204 1250.25159,832.368204" id="Path-3" stroke="#F4157C" stroke-width="2" opacity="0.87" stroke-linecap="round" stroke-linejoin="round" transform="translate(1235.751592, 833.868204) rotate(-76.000000) translate(-1235.751592, -833.868204) "></path>
            <path d="M1168.19645,502.106702 C1169.62503,500.106702 1171.0536,499.106702 1172.48217,499.106702 C1174.62503,499.106702 1174.62503,502.106702 1176.76788,502.106702 C1178.91074,502.106702 1178.91074,499.106702 1181.0536,499.106702 C1183.19645,499.106702 1183.19645,502.106702 1185.33931,502.106702 C1187.48217,502.106702 1187.48217,499.106702 1189.62503,499.106702 C1191.76788,499.106702 1191.76788,502.106702 1193.91074,502.106702 C1195.33931,502.106702 1196.76788,501.106702 1198.19645,499.106702" id="Path-3" stroke="#F4157C" stroke-width="2" opacity="0.83" stroke-linecap="round" stroke-linejoin="round" transform="translate(1183.196454, 500.606702) rotate(-249.000000) translate(-1183.196454, -500.606702) "></path>
            <path d="M1212.34597,451.515399 C1214.20311,448.848732 1216.06025,447.515399 1217.91739,447.515399 C1220.70311,447.515399 1220.70311,451.515399 1223.48882,451.515399 C1226.27454,451.515399 1226.27454,447.515399 1229.06025,447.515399 C1231.84597,447.515399 1231.84597,451.515399 1234.63168,451.515399 C1237.41739,451.515399 1237.41739,447.515399 1240.20311,447.515399 C1242.98882,447.515399 1242.98882,451.515399 1245.77454,451.515399 C1247.63168,451.515399 1249.48882,450.182066 1251.34597,447.515399" id="Path-3" stroke="#F4157C" stroke-width="2" opacity="0.85" stroke-linecap="round" stroke-linejoin="round" transform="translate(1231.845966, 449.515399) rotate(-230.000000) translate(-1231.845966, -449.515399) "></path>
            <path d="M1097.85056,191.620304 C1099.51722,188.953637 1101.18389,187.620304 1102.85056,187.620304 C1105.35056,187.620304 1105.35056,191.620304 1107.85056,191.620304 C1110.35056,191.620304 1110.35056,187.620304 1112.85056,187.620304 C1115.35056,187.620304 1115.35056,191.620304 1117.85056,191.620304 C1120.35056,191.620304 1120.35056,187.620304 1122.85056,187.620304 C1125.35056,187.620304 1125.35056,191.620304 1127.85056,191.620304 C1129.51722,191.620304 1131.18389,190.286971 1132.85056,187.620304" id="Path-3" stroke="#F4157C" stroke-width="2" opacity="0.88" stroke-linecap="round" stroke-linejoin="round" transform="translate(1115.350556, 189.620304) rotate(-22.000000) translate(-1115.350556, -189.620304) "></path>
            <path d="M982.431645,897.262555 C984.19355,894.595888 985.955454,893.262555 987.717359,893.262555 C990.360216,893.262555 990.360216,897.262555 993.003074,897.262555 C995.645931,897.262555 995.645931,893.262555 998.288788,893.262555 C1000.93164,893.262555 1000.93164,897.262555 1003.5745,897.262555 C1006.21736,897.262555 1006.21736,893.262555 1008.86022,893.262555 C1011.50307,893.262555 1011.50307,897.262555 1014.14593,897.262555 C1015.90784,897.262555 1017.66974,895.929222 1019.43164,893.262555" id="Path-3" stroke="#F4157C" stroke-width="2" opacity="0.73" stroke-linecap="round" stroke-linejoin="round" transform="translate(1000.931645, 895.262555) rotate(-282.000000) translate(-1000.931645, -895.262555) "></path>
            <path d="M1059.98552,552.319497 C1061.41409,550.319497 1062.84266,549.319497 1064.27123,549.319497 C1066.41409,549.319497 1066.41409,552.319497 1068.55695,552.319497 C1070.6998,552.319497 1070.6998,549.319497 1072.84266,549.319497 C1074.98552,549.319497 1074.98552,552.319497 1077.12837,552.319497 C1079.27123,552.319497 1079.27123,549.319497 1081.41409,549.319497 C1083.55695,549.319497 1083.55695,552.319497 1085.6998,552.319497 C1087.12837,552.319497 1088.55695,551.319497 1089.98552,549.319497" id="Path-3" stroke="#F4157C" stroke-width="2" opacity="0.7" stroke-linecap="round" stroke-linejoin="round"></path>
            <path d="M1070.7045,223.841274 C1071.84736,221.841274 1072.99022,220.841274 1074.13307,220.841274 C1075.84736,220.841274 1075.84736,223.841274 1077.56165,223.841274 C1079.27593,223.841274 1079.27593,220.841274 1080.99022,220.841274 C1082.7045,220.841274 1082.7045,223.841274 1084.41879,223.841274 C1086.13307,223.841274 1086.13307,220.841274 1087.84736,220.841274 C1089.56165,220.841274 1089.56165,223.841274 1091.27593,223.841274 C1092.41879,223.841274 1093.56165,222.841274 1094.7045,220.841274" id="Path-3" stroke="#F4157C" stroke-width="2" opacity="0.82" stroke-linecap="round" stroke-linejoin="round" transform="translate(1082.704503, 222.341274) rotate(-179.000000) translate(-1082.704503, -222.341274) "></path>
            <path d="M631.222702,715.221084 C632.556035,713.221084 633.889369,712.221084 635.222702,712.221084 C637.222702,712.221084 637.222702,715.221084 639.222702,715.221084 C641.222702,715.221084 641.222702,712.221084 643.222702,712.221084 C645.222702,712.221084 645.222702,715.221084 647.222702,715.221084 C649.222702,715.221084 649.222702,712.221084 651.222702,712.221084 C653.222702,712.221084 653.222702,715.221084 655.222702,715.221084 C656.556035,715.221084 657.889369,714.221084 659.222702,712.221084" id="Path-3" stroke="#F4157C" stroke-width="2" opacity="0.8" stroke-linecap="round" stroke-linejoin="round" transform="translate(645.222702, 713.721084) rotate(-259.000000) translate(-645.222702, -713.721084) "></path>
            <path d="M668.975023,322.429089 C670.451213,320.429089 671.927404,319.429089 673.403594,319.429089 C675.61788,319.429089 675.61788,322.429089 677.832166,322.429089 C680.046452,322.429089 680.046452,319.429089 682.260737,319.429089 C684.475023,319.429089 684.475023,322.429089 686.689309,322.429089 C688.903594,322.429089 688.903594,319.429089 691.11788,319.429089 C693.332166,319.429089 693.332166,322.429089 695.546452,322.429089 C697.022642,322.429089 698.498833,321.429089 699.975023,319.429089" id="Path-3" stroke="#F4157C" stroke-width="2" opacity="0.82" stroke-linecap="round" stroke-linejoin="round" transform="translate(684.475023, 320.929089) rotate(-137.000000) translate(-684.475023, -320.929089) "></path>
            <path d="M672.743588,198.230529 C674.219778,196.230529 675.695969,195.230529 677.172159,195.230529 C679.386445,195.230529 679.386445,198.230529 681.600731,198.230529 C683.815016,198.230529 683.815016,195.230529 686.029302,195.230529 C688.243588,195.230529 688.243588,198.230529 690.457874,198.230529 C692.672159,198.230529 692.672159,195.230529 694.886445,195.230529 C697.100731,195.230529 697.100731,198.230529 699.315016,198.230529 C700.791207,198.230529 702.267397,197.230529 703.743588,195.230529" id="Path-3" stroke="#F4157C" stroke-width="2" opacity="0.77" stroke-linecap="round" stroke-linejoin="round" transform="translate(688.243588, 196.730529) rotate(-278.000000) translate(-688.243588, -196.730529) "></path>
            <path d="M466.692794,259.294302 C467.88327,257.294302 469.073747,256.294302 470.264223,256.294302 C472.049937,256.294302 472.049937,259.294302 473.835651,259.294302 C475.621366,259.294302 475.621366,256.294302 477.40708,256.294302 C479.192794,256.294302 479.192794,259.294302 480.978508,259.294302 C482.764223,259.294302 482.764223,256.294302 484.549937,256.294302 C486.335651,256.294302 486.335651,259.294302 488.121366,259.294302 C489.311842,259.294302 490.502318,258.294302 491.692794,256.294302" id="Path-3" stroke="#F4157C" stroke-width="2" opacity="0.89" stroke-linecap="round" stroke-linejoin="round" transform="translate(479.192794, 257.794302) rotate(-188.000000) translate(-479.192794, -257.794302) "></path>
            <path d="M279.456815,18.3529896 C281.075862,15.686323 282.69491,14.3529896 284.313958,14.3529896 C286.742529,14.3529896 286.742529,18.3529896 289.1711,18.3529896 C291.599672,18.3529896 291.599672,14.3529896 294.028243,14.3529896 C296.456815,14.3529896 296.456815,18.3529896 298.885386,18.3529896 C301.313958,18.3529896 301.313958,14.3529896 303.742529,14.3529896 C306.1711,14.3529896 306.1711,18.3529896 308.599672,18.3529896 C310.218719,18.3529896 311.837767,17.0196563 313.456815,14.3529896" id="Path-3" stroke="#F4157C" stroke-width="2" opacity="0.77" stroke-linecap="round" stroke-linejoin="round" transform="translate(296.456815, 16.352990) rotate(-316.000000) translate(-296.456815, -16.352990) "></path>
            <path d="M152.02186,851.025166 C153.545669,848.3585 155.069479,847.025166 156.593288,847.025166 C158.879003,847.025166 158.879003,851.025166 161.164717,851.025166 C163.450431,851.025166 163.450431,847.025166 165.736145,847.025166 C168.02186,847.025166 168.02186,851.025166 170.307574,851.025166 C172.593288,851.025166 172.593288,847.025166 174.879003,847.025166 C177.164717,847.025166 177.164717,851.025166 179.450431,851.025166 C180.974241,851.025166 182.49805,849.691833 184.02186,847.025166" id="Path-3" stroke="#F4157C" stroke-width="2" opacity="0.72" stroke-linecap="round" stroke-linejoin="round" transform="translate(168.021860, 849.025166) rotate(-196.000000) translate(-168.021860, -849.025166) "></path>
        </g>
    </g>
</svg>